<?xml version="1.0" encoding="UTF-8" standalone="no"?><svg xmlns="http://www.w3.org/2000/svg" xmlns:xlink="http://www.w3.org/1999/xlink" contentStyleType="text/css" height="404px" preserveAspectRatio="none" style="width:310px;height:404px;background:#FFFFFF;" version="1.1" viewBox="0 0 310 404" width="310px" zoomAndPan="magnify"><defs/><g><!--MD5=[fa30f07c3d3f6e8bccff36f9bf372c1f]
class クラス--><g id="elem_クラス"><rect codeLine="1" fill="#F1F1F1" height="48" id="クラス" rx="2.5" ry="2.5" style="stroke:#181818;stroke-width:0.5;" width="74" x="103" y="7"/><ellipse cx="118" cy="23" fill="#ADD1B2" rx="11" ry="11" style="stroke:#181818;stroke-width:1.0;"/><path d="M120.7031,28.4375 Q119.7813,29.3594 117.5156,29.3594 Q116.25,29.3594 115.3281,28.4375 Q113.6719,26.7813 113.6719,23.25 Q113.6719,19.1406 115.4531,17.3438 Q116.3906,16.4219 117.5781,16.4219 Q119.8438,16.4219 120.5781,17.1406 Q121.9688,18.5469 121.9063,20.9375 L119.4375,20.9375 Q119.375,18.8125 118.6406,18.0781 Q118.25,17.6719 117.5781,17.6719 Q117.5781,17.6719 117.5156,18.1406 Q116.1875,19.4688 116.1875,23.125 Q116.1875,26.3125 117.3281,27.4375 Q117.8594,27.9688 117.8594,27.9688 Q118.1094,27.9688 118.6406,27.4375 Q119.3125,26.7813 119.375,24.3906 L121.9688,24.3906 Q121.7656,27.375 120.7031,28.4375 Z " fill="#000000"/><text fill="#000000" font-family="sans-serif" font-size="14" lengthAdjust="spacing" textLength="42" x="132" y="28.7285">クラス</text><line style="stroke:#181818;stroke-width:0.5;" x1="104" x2="176" y1="39" y2="39"/><line style="stroke:#181818;stroke-width:0.5;" x1="104" x2="176" y1="47" y2="47"/></g><!--MD5=[0e79365585a5485965079c99cf727c16]
class 生徒--><g id="elem_生徒"><rect codeLine="2" fill="#F1F1F1" height="48" id="生徒" rx="2.5" ry="2.5" style="stroke:#181818;stroke-width:0.5;" width="60" x="7" y="124"/><ellipse cx="22" cy="140" fill="#ADD1B2" rx="11" ry="11" style="stroke:#181818;stroke-width:1.0;"/><path d="M24.7031,145.4375 Q23.7813,146.3594 21.5156,146.3594 Q20.25,146.3594 19.3281,145.4375 Q17.6719,143.7813 17.6719,140.25 Q17.6719,136.1406 19.4531,134.3438 Q20.3906,133.4219 21.5781,133.4219 Q23.8438,133.4219 24.5781,134.1406 Q25.9688,135.5469 25.9063,137.9375 L23.4375,137.9375 Q23.375,135.8125 22.6406,135.0781 Q22.25,134.6719 21.5781,134.6719 Q21.5781,134.6719 21.5156,135.1406 Q20.1875,136.4688 20.1875,140.125 Q20.1875,143.3125 21.3281,144.4375 Q21.8594,144.9688 21.8594,144.9688 Q22.1094,144.9688 22.6406,144.4375 Q23.3125,143.7813 23.375,141.3906 L25.9688,141.3906 Q25.7656,144.375 24.7031,145.4375 Z " fill="#000000"/><text fill="#000000" font-family="sans-serif" font-size="14" lengthAdjust="spacing" textLength="28" x="36" y="145.7285">生徒</text><line style="stroke:#181818;stroke-width:0.5;" x1="8" x2="66" y1="156" y2="156"/><line style="stroke:#181818;stroke-width:0.5;" x1="8" x2="66" y1="164" y2="164"/></g><!--MD5=[85b1e4b844fb2988746b2dae6c4592cf]
class 担任--><g id="elem_担任"><rect codeLine="3" fill="#F1F1F1" height="65.6094" id="担任" rx="2.5" ry="2.5" style="stroke:#181818;stroke-width:0.5;" width="76" x="102" y="115"/><ellipse cx="124.2" cy="131" fill="#ADD1B2" rx="11" ry="11" style="stroke:#181818;stroke-width:1.0;"/><path d="M126.9031,136.4375 Q125.9813,137.3594 123.7156,137.3594 Q122.45,137.3594 121.5281,136.4375 Q119.8719,134.7813 119.8719,131.25 Q119.8719,127.1406 121.6531,125.3438 Q122.5906,124.4219 123.7781,124.4219 Q126.0438,124.4219 126.7781,125.1406 Q128.1688,126.5469 128.1063,128.9375 L125.6375,128.9375 Q125.575,126.8125 124.8406,126.0781 Q124.45,125.6719 123.7781,125.6719 Q123.7781,125.6719 123.7156,126.1406 Q122.3875,127.4688 122.3875,131.125 Q122.3875,134.3125 123.5281,135.4375 Q124.0594,135.9688 124.0594,135.9688 Q124.3094,135.9688 124.8406,135.4375 Q125.5125,134.7813 125.575,132.3906 L128.1688,132.3906 Q127.9656,135.375 126.9031,136.4375 Z " fill="#000000"/><text fill="#000000" font-family="sans-serif" font-size="14" lengthAdjust="spacing" textLength="28" x="139.8" y="136.7285">担任</text><line style="stroke:#181818;stroke-width:0.5;" x1="103" x2="177" y1="147" y2="147"/><text fill="#000000" font-family="sans-serif" font-size="14" lengthAdjust="spacing" textLength="64" x="108" y="165.5332">役職: 担任</text><line style="stroke:#181818;stroke-width:0.5;" x1="103" x2="177" y1="172.6094" y2="172.6094"/></g><!--MD5=[b2e57cc6ffce07cf3ff77e41d4cf3430]
class 副担任--><g id="elem_副担任"><rect codeLine="6" fill="#F1F1F1" height="65.6094" id="副担任" rx="2.5" ry="2.5" style="stroke:#181818;stroke-width:0.5;" width="90" x="213" y="115"/><ellipse cx="235.2" cy="131" fill="#ADD1B2" rx="11" ry="11" style="stroke:#181818;stroke-width:1.0;"/><path d="M237.9031,136.4375 Q236.9813,137.3594 234.7156,137.3594 Q233.45,137.3594 232.5281,136.4375 Q230.8719,134.7813 230.8719,131.25 Q230.8719,127.1406 232.6531,125.3438 Q233.5906,124.4219 234.7781,124.4219 Q237.0438,124.4219 237.7781,125.1406 Q239.1688,126.5469 239.1063,128.9375 L236.6375,128.9375 Q236.575,126.8125 235.8406,126.0781 Q235.45,125.6719 234.7781,125.6719 Q234.7781,125.6719 234.7156,126.1406 Q233.3875,127.4688 233.3875,131.125 Q233.3875,134.3125 234.5281,135.4375 Q235.0594,135.9688 235.0594,135.9688 Q235.3094,135.9688 235.8406,135.4375 Q236.5125,134.7813 236.575,132.3906 L239.1688,132.3906 Q238.9656,135.375 237.9031,136.4375 Z " fill="#000000"/><text fill="#000000" font-family="sans-serif" font-size="14" lengthAdjust="spacing" textLength="42" x="250.8" y="136.7285">副担任</text><line style="stroke:#181818;stroke-width:0.5;" x1="214" x2="302" y1="147" y2="147"/><text fill="#000000" font-family="sans-serif" font-size="14" lengthAdjust="spacing" textLength="78" x="219" y="165.5332">役職: 副担任</text><line style="stroke:#181818;stroke-width:0.5;" x1="214" x2="302" y1="172.6094" y2="172.6094"/></g><!--MD5=[f7ad6b33b54b2c6b3d16c209e959f2fe]
class 教員--><g id="elem_教員"><rect codeLine="9" fill="#F1F1F1" height="48" id="教員" rx="2.5" ry="2.5" style="stroke:#181818;stroke-width:0.5;" width="60" x="169" y="241"/><ellipse cx="184" cy="257" fill="#ADD1B2" rx="11" ry="11" style="stroke:#181818;stroke-width:1.0;"/><path d="M186.7031,262.4375 Q185.7813,263.3594 183.5156,263.3594 Q182.25,263.3594 181.3281,262.4375 Q179.6719,260.7813 179.6719,257.25 Q179.6719,253.1406 181.4531,251.3438 Q182.3906,250.4219 183.5781,250.4219 Q185.8438,250.4219 186.5781,251.1406 Q187.9688,252.5469 187.9063,254.9375 L185.4375,254.9375 Q185.375,252.8125 184.6406,252.0781 Q184.25,251.6719 183.5781,251.6719 Q183.5781,251.6719 183.5156,252.1406 Q182.1875,253.4688 182.1875,257.125 Q182.1875,260.3125 183.3281,261.4375 Q183.8594,261.9688 183.8594,261.9688 Q184.1094,261.9688 184.6406,261.4375 Q185.3125,260.7813 185.375,258.3906 L187.9688,258.3906 Q187.7656,261.375 186.7031,262.4375 Z " fill="#000000"/><text fill="#000000" font-family="sans-serif" font-size="14" lengthAdjust="spacing" textLength="28" x="198" y="262.7285">教員</text><line style="stroke:#181818;stroke-width:0.5;" x1="170" x2="228" y1="273" y2="273"/><line style="stroke:#181818;stroke-width:0.5;" x1="170" x2="228" y1="281" y2="281"/></g><!--MD5=[e82d0d40c05faaf3afedccc817fccea9]
class 役職--><g id="elem_役職"><rect codeLine="10" fill="#F1F1F1" height="48" id="役職" rx="2.5" ry="2.5" style="stroke:#181818;stroke-width:0.5;" width="60" x="169" y="349"/><ellipse cx="184" cy="365" fill="#ADD1B2" rx="11" ry="11" style="stroke:#181818;stroke-width:1.0;"/><path d="M186.7031,370.4375 Q185.7813,371.3594 183.5156,371.3594 Q182.25,371.3594 181.3281,370.4375 Q179.6719,368.7813 179.6719,365.25 Q179.6719,361.1406 181.4531,359.3438 Q182.3906,358.4219 183.5781,358.4219 Q185.8438,358.4219 186.5781,359.1406 Q187.9688,360.5469 187.9063,362.9375 L185.4375,362.9375 Q185.375,360.8125 184.6406,360.0781 Q184.25,359.6719 183.5781,359.6719 Q183.5781,359.6719 183.5156,360.1406 Q182.1875,361.4688 182.1875,365.125 Q182.1875,368.3125 183.3281,369.4375 Q183.8594,369.9688 183.8594,369.9688 Q184.1094,369.9688 184.6406,369.4375 Q185.3125,368.7813 185.375,366.3906 L187.9688,366.3906 Q187.7656,369.375 186.7031,370.4375 Z " fill="#000000"/><text fill="#000000" font-family="sans-serif" font-size="14" lengthAdjust="spacing" textLength="28" x="198" y="370.7285">役職</text><line style="stroke:#181818;stroke-width:0.5;" x1="170" x2="228" y1="381" y2="381"/><line style="stroke:#181818;stroke-width:0.5;" x1="170" x2="228" y1="389" y2="389"/></g><!--MD5=[d1be7b7acca90b655752d96824e87054]
reverse link クラス to 生徒--><g id="link_クラス_生徒"><path codeLine="12" d="M110.27,65.19 C93.47,83.95 72.88,106.94 57.81,123.76 " fill="none" id="クラス-backto-生徒" style="stroke:#181818;stroke-width:1.0;"/><polygon fill="none" points="119.16,55.27,112.1777,57.0722,111.1558,64.2105,118.138,62.4083,119.16,55.27" style="stroke:#181818;stroke-width:1.0;"/><text fill="#000000" font-family="sans-serif" font-size="13" lengthAdjust="spacing" textLength="7" x="105.7396" y="76.6738">1</text><text fill="#000000" font-family="sans-serif" font-size="13" lengthAdjust="spacing" textLength="29" x="30.4269" y="113.0387">1..35</text></g><!--MD5=[8bec464f7f7d75e38dc8d2973e650b2a]
reverse link クラス to 担任--><g id="link_クラス_担任"><path codeLine="13" d="M140,68.63 C140,83.4 140,100.3 140,114.61 " fill="none" id="クラス-backto-担任" style="stroke:#181818;stroke-width:1.0;"/><polygon fill="none" points="140,55.27,136,61.27,140,67.27,144,61.27,140,55.27" style="stroke:#181818;stroke-width:1.0;"/><text fill="#000000" font-family="sans-serif" font-size="13" lengthAdjust="spacing" textLength="7" x="132.1469" y="76.6738">1</text><text fill="#000000" font-family="sans-serif" font-size="13" lengthAdjust="spacing" textLength="7" x="132.3109" y="104.0295">1</text></g><!--MD5=[e35a0d59b1bbe539cb81c3652d3ab61d]
reverse link クラス to 副担任--><g id="link_クラス_副担任"><path codeLine="14" d="M173.43,64.58 C189.5,80.24 208.72,98.97 224.77,114.61 " fill="none" id="クラス-backto-副担任" style="stroke:#181818;stroke-width:1.0;"/><polygon fill="none" points="163.88,55.27,165.3821,62.3229,172.4702,63.6491,170.9681,56.5961,163.88,55.27" style="stroke:#181818;stroke-width:1.0;"/><text fill="#000000" font-family="sans-serif" font-size="13" lengthAdjust="spacing" textLength="5" x="164.0914" y="76.6738">*</text><text fill="#000000" font-family="sans-serif" font-size="13" lengthAdjust="spacing" textLength="22" x="180.881" y="104.0295">1..2</text></g><!--MD5=[e7f498b058a747102dc90a30126385fa]
link 担任 to 教員--><g id="link_担任_教員"><path codeLine="16" d="M156.43,181.03 C163.06,193.95 170.79,209.02 177.83,222.75 " fill="none" id="担任-to-教員" style="stroke:#181818;stroke-width:1.0;"/><polygon fill="none" points="184.24,219.9,187.14,240.89,171.78,226.29,184.24,219.9" style="stroke:#181818;stroke-width:1.0;"/></g><!--MD5=[303e6c308c2bd492dce108995ae3c402]
link 副担任 to 教員--><g id="link_副担任_教員"><path codeLine="17" d="M241.57,181.03 C234.94,193.95 227.21,209.02 220.17,222.75 " fill="none" id="副担任-to-教員" style="stroke:#181818;stroke-width:1.0;"/><polygon fill="none" points="226.22,226.29,210.86,240.89,213.76,219.9,226.22,226.29" style="stroke:#181818;stroke-width:1.0;"/></g><!--MD5=[82f22f368b31abe4ad20df998ac461fa]
link 教員 to 役職--><g id="link_教員_役職"><path codeLine="19" d="M199,289 C199,306.66 199,330.94 199,348.68 " fill="none" id="教員-役職" style="stroke:#181818;stroke-width:1.0;"/><text fill="#000000" font-family="sans-serif" font-size="13" lengthAdjust="spacing" textLength="5" x="193.3906" y="310.338">*</text><text fill="#000000" font-family="sans-serif" font-size="13" lengthAdjust="spacing" textLength="22" x="174.3188" y="338.34">0..1</text></g><!--MD5=[a7dd57ec857a67152d45a9b594186a17]
@startuml 5-2
class クラス
class 生徒
class 担任 {
    役職: 担任
}
class 副担任 {
    役職: 副担任
}
class 教員
class 役職

クラス " 1" o- - "1..35" 生徒
クラス "1" o- - "1" 担任
クラス "*" o- - "1..2   " 副担任

担任 - -|> 教員
副担任 - -|> 教員

教員 "*" - - "0..1" 役職

@enduml

PlantUML version 1.2022.5(Sat Apr 30 19:55:52 JST 2022)
(GPL source distribution)
Java Runtime: Java(TM) SE Runtime Environment
JVM: Java HotSpot(TM) 64-Bit Server VM
Default Encoding: MS932
Language: ja
Country: JP
--></g></svg>