<?xml version="1.0" encoding="UTF-8" standalone="no"?><svg xmlns="http://www.w3.org/2000/svg" xmlns:xlink="http://www.w3.org/1999/xlink" contentStyleType="text/css" height="260px" preserveAspectRatio="none" style="width:509px;height:260px;background:#FFFFFF;" version="1.1" viewBox="0 0 509 260" width="509px" zoomAndPan="magnify"><defs/><g><!--MD5=[c0ed2dee861af961c1535ac753e229c6]
cluster 出席管理システム--><g id="cluster_出席管理システム"><rect height="218" rx="2.5" ry="2.5" style="stroke:#181818;stroke-width:1.0;fill:none;" width="170" x="190" y="7"/><text fill="#000000" font-family="sans-serif" font-size="14" font-weight="bold" lengthAdjust="spacing" textLength="120" x="215" y="23.5332">出席管理システム</text></g><g id="elem_出席情報登録"><ellipse cx="274.7688" cy="193.1538" fill="#F1F1F1" rx="68.7688" ry="16.1538" style="stroke:#181818;stroke-width:0.5;"/><text fill="#000000" font-family="sans-serif" font-size="14" lengthAdjust="spacing" textLength="84" x="229.7688" y="197.6704">出席情報登録</text></g><g id="elem_出席情報検索"><ellipse cx="274.7688" cy="59.1538" fill="#F1F1F1" rx="68.7688" ry="16.1538" style="stroke:#181818;stroke-width:0.5;"/><text fill="#000000" font-family="sans-serif" font-size="14" lengthAdjust="spacing" textLength="84" x="229.7688" y="63.6704">出席情報検索</text></g><g id="elem_出席情報確認"><ellipse cx="274.7688" cy="126.1538" fill="#F1F1F1" rx="68.7688" ry="16.1538" style="stroke:#181818;stroke-width:0.5;"/><text fill="#000000" font-family="sans-serif" font-size="14" lengthAdjust="spacing" textLength="84" x="229.7688" y="130.6704">出席情報確認</text></g><!--MD5=[ebc1e35fd17bdcba1fea43e705da8129]
entity 教員--><g id="elem_教員"><ellipse cx="76" cy="72.5" fill="#F1F1F1" rx="8" ry="8" style="stroke:#181818;stroke-width:0.5;"/><path d="M76,80.5 L76,107.5 M63,88.5 L89,88.5 M76,107.5 L63,122.5 M76,107.5 L89,122.5 " fill="none" style="stroke:#181818;stroke-width:0.5;"/><text fill="#000000" font-family="sans-serif" font-size="14" lengthAdjust="spacing" textLength="28" x="62" y="138.5332">教員</text></g><!--MD5=[68faa74dd26f3be64a381b9f2f44fc8f]
entity 教員以外の職員--><g id="elem_教員以外の職員"><ellipse cx="453" cy="28.5" fill="#F1F1F1" rx="8" ry="8" style="stroke:#181818;stroke-width:0.5;"/><path d="M453,36.5 L453,63.5 M440,44.5 L466,44.5 M453,63.5 L440,78.5 M453,63.5 L466,78.5 " fill="none" style="stroke:#181818;stroke-width:0.5;"/><text fill="#000000" font-family="sans-serif" font-size="14" lengthAdjust="spacing" textLength="98" x="404" y="94.5332">教員以外の職員</text></g><!--MD5=[2e02da12dfa18cf167115b45484bd49f]
entity 学生--><g id="elem_学生"><ellipse cx="453" cy="141.5" fill="#F1F1F1" rx="8" ry="8" style="stroke:#181818;stroke-width:0.5;"/><path d="M453,149.5 L453,176.5 M440,157.5 L466,157.5 M453,176.5 L440,191.5 M453,176.5 L466,191.5 " fill="none" style="stroke:#181818;stroke-width:0.5;"/><text fill="#000000" font-family="sans-serif" font-size="14" lengthAdjust="spacing" textLength="28" x="439" y="207.5332">学生</text></g><!--MD5=[78b375b16a12c269b188e4795614c8a4]
entity 携帯出席確認システム--><g id="elem_携帯出席確認システム"><ellipse cx="76" cy="185.5" fill="#F1F1F1" rx="8" ry="8" style="stroke:#181818;stroke-width:0.5;"/><path d="M76,193.5 L76,220.5 M63,201.5 L89,201.5 M76,220.5 L63,235.5 M76,220.5 L89,235.5 " fill="none" style="stroke:#181818;stroke-width:0.5;"/><text fill="#000000" font-family="sans-serif" font-size="14" lengthAdjust="spacing" textLength="140" x="6" y="251.5332">携帯出席確認システム</text></g><!--MD5=[7b873fe09c6f0cc67402a6aadd77f4ce]
link 携帯出席確認システム to 出席情報登録--><g id="link_携帯出席確認システム_出席情報登録"><path d="M146.18,207.92 C166.21,205.58 188.02,203.04 207.86,200.72 " fill="none" id="携帯出席確認システム-to-出席情報登録" style="stroke:#181818;stroke-width:1.0;"/><polygon fill="#181818" points="212.86,200.14,203.4538,197.2205,207.8943,200.725,204.3898,205.1656,212.86,200.14" style="stroke:#181818;stroke-width:1.0;"/></g><!--MD5=[0ca51357109038c37053790fc13e5c87]
link 教員 to 出席情報登録--><g id="link_教員_出席情報登録"><path d="M90.3,110.85 C109.95,122.27 148.07,143.77 182,159 C197.49,165.95 214.86,172.65 230.31,178.23 " fill="none" id="教員-to-出席情報登録" style="stroke:#181818;stroke-width:1.0;"/><polygon fill="#181818" points="235.03,179.92,227.9088,173.1164,230.3236,178.232,225.208,180.6467,235.03,179.92" style="stroke:#181818;stroke-width:1.0;"/></g><!--MD5=[c1ab29bf3b153e26d9a0923ad4a3b827]
link 教員 to 出席情報確認--><g id="link_教員_出席情報確認"><path d="M90.23,104.54 C114.02,107.32 165.5,113.33 207.94,118.29 " fill="none" id="教員-to-出席情報確認" style="stroke:#181818;stroke-width:1.0;"/><polygon fill="#181818" points="213.07,118.89,204.6015,113.8616,208.1045,118.3033,203.6628,121.8063,213.07,118.89" style="stroke:#181818;stroke-width:1.0;"/></g><!--MD5=[0fc9aa2a488afeebe9ed159a4a762f31]
reverse link 出席情報確認 to 教員以外の職員--><g id="link_出席情報確認_教員以外の職員"><path d="M317.6,110.83 C333.41,105.01 351.56,98.27 368,92 C379.57,87.59 391.99,82.76 403.65,78.19 " fill="none" id="出席情報確認-backto-教員以外の職員" style="stroke:#181818;stroke-width:1.0;"/><polygon fill="#181818" points="312.77,112.6,322.5982,113.2379,317.461,110.8695,319.8294,105.7323,312.77,112.6" style="stroke:#181818;stroke-width:1.0;"/></g><!--MD5=[540fd4d2b8dcb6e939fcbba5126d8d26]
reverse link 出席情報検索 to 教員以外の職員--><g id="link_出席情報検索_教員以外の職員"><path d="M349.21,59 C367.62,59 386.92,59 403.76,59 " fill="none" id="出席情報検索-backto-教員以外の職員" style="stroke:#181818;stroke-width:1.0;"/><polygon fill="#181818" points="344.05,59,353.05,63,349.05,59,353.05,55,344.05,59" style="stroke:#181818;stroke-width:1.0;"/></g><!--MD5=[c24ed77d8b586daaeec46fe6ce4b5843]
reverse link 出席情報確認 to 学生--><g id="link_出席情報確認_学生"><path d="M326.9,139.3 C365.45,149.38 415.63,162.5 438.99,168.6 " fill="none" id="出席情報確認-backto-学生" style="stroke:#181818;stroke-width:1.0;"/><polygon fill="#181818" points="321.78,137.97,329.4818,144.1086,326.6187,139.2298,331.4975,136.3666,321.78,137.97" style="stroke:#181818;stroke-width:1.0;"/></g><!--MD5=[d39c4191f3219bb224fbc0ea06516bc3]
link 教員 to 出席情報検索--><g id="link_教員_出席情報検索"><path d="M90.23,100.04 C116.23,94.24 175.3,81.05 219.49,71.17 " fill="none" id="教員-to-出席情報検索" style="stroke:#181818;stroke-width:1.0;"/><polygon fill="#181818" points="224.53,70.05,214.8712,68.1245,219.6521,71.1482,216.6284,75.9291,224.53,70.05" style="stroke:#181818;stroke-width:1.0;"/></g><!--MD5=[639e60ab0a8ff4f94ddc7523dee40384]
@startuml
left to right direction
actor 教員
actor 教員以外の職員
actor 学生
actor 携帯出席確認システム
rectangle 出席管理システム {
  usecase 出席情報登録
  usecase 出席情報検索
  usecase 出席情報確認
'   usecase Pay for Food
'   usecase Drink
}
携帯出席確認システム - -> 出席情報登録
教員 - -> 出席情報登録
教員 - -> 出席情報確認
出席情報確認 <- - 教員以外の職員
出席情報検索 <- - 教員以外の職員
出席情報確認 <- - 学生
教員 - -> 出席情報検索

@enduml

@startuml
left to right direction
actor 教員
actor 教員以外の職員
actor 学生
actor 携帯出席確認システム
rectangle 出席管理システム {
  usecase 出席情報登録
  usecase 出席情報検索
  usecase 出席情報確認
}
携帯出席確認システム - -> 出席情報登録
教員 - -> 出席情報登録
教員 - -> 出席情報確認
出席情報確認 <- - 教員以外の職員
出席情報検索 <- - 教員以外の職員
出席情報確認 <- - 学生
教員 - -> 出席情報検索

@enduml

PlantUML version 1.2022.5(Sat Apr 30 19:55:52 JST 2022)
(GPL source distribution)
Java Runtime: Java(TM) SE Runtime Environment
JVM: Java HotSpot(TM) 64-Bit Server VM
Default Encoding: MS932
Language: ja
Country: JP
--></g></svg>