<?xml version="1.0" encoding="UTF-8" standalone="no"?><svg xmlns="http://www.w3.org/2000/svg" xmlns:xlink="http://www.w3.org/1999/xlink" contentStyleType="text/css" height="541px" preserveAspectRatio="none" style="width:407px;height:541px;background:#FFFFFF;" version="1.1" viewBox="0 0 407 541" width="407px" zoomAndPan="magnify"><defs/><g><rect fill="#FFFFFF" height="357.8125" style="stroke:#181818;stroke-width:1.0;" width="10" x="17" y="92.6094"/><rect fill="#FFFFFF" height="148.0547" style="stroke:#181818;stroke-width:1.0;" width="10" x="114" y="114.9609"/><rect fill="#FFFFFF" height="28" style="stroke:#181818;stroke-width:1.0;" width="10" x="119" y="214.0156"/><rect fill="#FFFFFF" height="148.0547" style="stroke:#181818;stroke-width:1.0;" width="10" x="114" y="293.3672"/><rect fill="#FFFFFF" height="28" style="stroke:#181818;stroke-width:1.0;" width="10" x="119" y="392.4219"/><rect fill="#FFFFFF" height="30.3516" style="stroke:#181818;stroke-width:1.0;" width="10" x="260" y="145.3125"/><rect fill="#FFFFFF" height="30.3516" style="stroke:#181818;stroke-width:1.0;" width="10" x="361" y="323.7188"/><line style="stroke:#181818;stroke-width:0.5;stroke-dasharray:5.0,5.0;" x1="22" x2="22" y1="82.6094" y2="459.4219"/><line style="stroke:#181818;stroke-width:0.5;stroke-dasharray:5.0,5.0;" x1="119" x2="119" y1="82.6094" y2="459.4219"/><line style="stroke:#181818;stroke-width:0.5;stroke-dasharray:5.0,5.0;" x1="265" x2="265" y1="82.6094" y2="459.4219"/><line style="stroke:#181818;stroke-width:0.5;stroke-dasharray:5.0,5.0;" x1="366" x2="366" y1="82.6094" y2="459.4219"/><text fill="#000000" font-family="sans-serif" font-size="14" lengthAdjust="spacing" textLength="28" x="5" y="79.5332">学生</text><ellipse cx="22" cy="13.5" fill="#E2E2F0" rx="8" ry="8" style="stroke:#181818;stroke-width:0.5;"/><path d="M22,21.5 L22,48.5 M9,29.5 L35,29.5 M22,48.5 L9,63.5 M22,48.5 L35,63.5 " fill="none" style="stroke:#181818;stroke-width:0.5;"/><text fill="#000000" font-family="sans-serif" font-size="14" lengthAdjust="spacing" textLength="28" x="5" y="472.9551">学生</text><ellipse cx="22" cy="484.5313" fill="#E2E2F0" rx="8" ry="8" style="stroke:#181818;stroke-width:0.5;"/><path d="M22,492.5313 L22,519.5313 M9,500.5313 L35,500.5313 M22,519.5313 L9,534.5313 M22,519.5313 L35,534.5313 " fill="none" style="stroke:#181818;stroke-width:0.5;"/><rect fill="#E2E2F0" height="31.6094" rx="2.5" ry="2.5" style="stroke:#181818;stroke-width:0.5;" width="140" x="49" y="50"/><text fill="#000000" font-family="sans-serif" font-size="14" lengthAdjust="spacing" textLength="126" x="56" y="71.5332">画面・コントローラ</text><rect fill="#E2E2F0" height="31.6094" rx="2.5" ry="2.5" style="stroke:#181818;stroke-width:0.5;" width="140" x="49" y="458.4219"/><text fill="#000000" font-family="sans-serif" font-size="14" lengthAdjust="spacing" textLength="126" x="56" y="479.9551">画面・コントローラ</text><rect fill="#E2E2F0" height="31.6094" rx="2.5" ry="2.5" style="stroke:#181818;stroke-width:0.5;" width="112" x="209" y="50"/><text fill="#000000" font-family="sans-serif" font-size="14" lengthAdjust="spacing" textLength="98" x="216" y="71.5332">授業履修者情報</text><rect fill="#E2E2F0" height="31.6094" rx="2.5" ry="2.5" style="stroke:#181818;stroke-width:0.5;" width="112" x="209" y="458.4219"/><text fill="#000000" font-family="sans-serif" font-size="14" lengthAdjust="spacing" textLength="98" x="216" y="479.9551">授業履修者情報</text><rect fill="#E2E2F0" height="31.6094" rx="2.5" ry="2.5" style="stroke:#181818;stroke-width:0.5;" width="70" x="331" y="50"/><text fill="#000000" font-family="sans-serif" font-size="14" lengthAdjust="spacing" textLength="56" x="338" y="71.5332">出席情報</text><rect fill="#E2E2F0" height="31.6094" rx="2.5" ry="2.5" style="stroke:#181818;stroke-width:0.5;" width="70" x="331" y="458.4219"/><text fill="#000000" font-family="sans-serif" font-size="14" lengthAdjust="spacing" textLength="56" x="338" y="479.9551">出席情報</text><rect fill="#FFFFFF" height="357.8125" style="stroke:#181818;stroke-width:1.0;" width="10" x="17" y="92.6094"/><rect fill="#FFFFFF" height="148.0547" style="stroke:#181818;stroke-width:1.0;" width="10" x="114" y="114.9609"/><rect fill="#FFFFFF" height="28" style="stroke:#181818;stroke-width:1.0;" width="10" x="119" y="214.0156"/><rect fill="#FFFFFF" height="148.0547" style="stroke:#181818;stroke-width:1.0;" width="10" x="114" y="293.3672"/><rect fill="#FFFFFF" height="28" style="stroke:#181818;stroke-width:1.0;" width="10" x="119" y="392.4219"/><rect fill="#FFFFFF" height="30.3516" style="stroke:#181818;stroke-width:1.0;" width="10" x="260" y="145.3125"/><rect fill="#FFFFFF" height="30.3516" style="stroke:#181818;stroke-width:1.0;" width="10" x="361" y="323.7188"/><polygon fill="#181818" points="102,110.9609,112,114.9609,102,118.9609,106,114.9609" style="stroke:#181818;stroke-width:1.0;"/><line style="stroke:#181818;stroke-width:1.0;" x1="27" x2="108" y1="114.9609" y2="114.9609"/><text fill="#000000" font-family="sans-serif" font-size="13" lengthAdjust="spacing" textLength="38" x="34" y="110.1045">ID入力</text><polygon fill="#181818" points="248,141.3125,258,145.3125,248,149.3125,252,145.3125" style="stroke:#181818;stroke-width:1.0;"/><line style="stroke:#181818;stroke-width:1.0;" x1="124" x2="254" y1="145.3125" y2="145.3125"/><text fill="#000000" font-family="sans-serif" font-size="13" lengthAdjust="spacing" textLength="117" x="131" y="140.4561">履修授業問い合わせ</text><polygon fill="#181818" points="135,171.6641,125,175.6641,135,179.6641,131,175.6641" style="stroke:#181818;stroke-width:1.0;"/><line style="stroke:#181818;stroke-width:1.0;stroke-dasharray:2.0,2.0;" x1="129" x2="264" y1="175.6641" y2="175.6641"/><text fill="#000000" font-family="sans-serif" font-size="13" lengthAdjust="spacing" textLength="52" x="141" y="170.8076">授業一覧</text><line style="stroke:#181818;stroke-width:1.0;" x1="129" x2="171" y1="206.0156" y2="206.0156"/><line style="stroke:#181818;stroke-width:1.0;" x1="171" x2="171" y1="206.0156" y2="219.0156"/><line style="stroke:#181818;stroke-width:1.0;" x1="130" x2="171" y1="219.0156" y2="219.0156"/><polygon fill="#181818" points="140,215.0156,130,219.0156,140,223.0156,136,219.0156" style="stroke:#181818;stroke-width:1.0;"/><text fill="#000000" font-family="sans-serif" font-size="13" lengthAdjust="spacing" textLength="91" x="136" y="201.1592">授業一覧を表示</text><polygon fill="#181818" points="38,259.0156,28,263.0156,38,267.0156,34,263.0156" style="stroke:#181818;stroke-width:1.0;"/><line style="stroke:#181818;stroke-width:1.0;stroke-dasharray:2.0,2.0;" x1="32" x2="118" y1="263.0156" y2="263.0156"/><polygon fill="#181818" points="102,289.3672,112,293.3672,102,297.3672,106,293.3672" style="stroke:#181818;stroke-width:1.0;"/><line style="stroke:#181818;stroke-width:1.0;" x1="27" x2="108" y1="293.3672" y2="293.3672"/><text fill="#000000" font-family="sans-serif" font-size="13" lengthAdjust="spacing" textLength="52" x="34" y="288.5107">授業選択</text><polygon fill="#181818" points="349,319.7188,359,323.7188,349,327.7188,353,323.7188" style="stroke:#181818;stroke-width:1.0;"/><line style="stroke:#181818;stroke-width:1.0;" x1="124" x2="355" y1="323.7188" y2="323.7188"/><text fill="#000000" font-family="sans-serif" font-size="13" lengthAdjust="spacing" textLength="117" x="131" y="318.8623">出席情報問い合わせ</text><polygon fill="#181818" points="135,350.0703,125,354.0703,135,358.0703,131,354.0703" style="stroke:#181818;stroke-width:1.0;"/><line style="stroke:#181818;stroke-width:1.0;stroke-dasharray:2.0,2.0;" x1="129" x2="365" y1="354.0703" y2="354.0703"/><text fill="#000000" font-family="sans-serif" font-size="13" lengthAdjust="spacing" textLength="52" x="141" y="349.2139">出席一覧</text><line style="stroke:#181818;stroke-width:1.0;" x1="129" x2="171" y1="384.4219" y2="384.4219"/><line style="stroke:#181818;stroke-width:1.0;" x1="171" x2="171" y1="384.4219" y2="397.4219"/><line style="stroke:#181818;stroke-width:1.0;" x1="130" x2="171" y1="397.4219" y2="397.4219"/><polygon fill="#181818" points="140,393.4219,130,397.4219,140,401.4219,136,397.4219" style="stroke:#181818;stroke-width:1.0;"/><text fill="#000000" font-family="sans-serif" font-size="13" lengthAdjust="spacing" textLength="91" x="136" y="379.5654">出席一覧を表示</text><polygon fill="#181818" points="38,437.4219,28,441.4219,38,445.4219,34,441.4219" style="stroke:#181818;stroke-width:1.0;"/><line style="stroke:#181818;stroke-width:1.0;stroke-dasharray:2.0,2.0;" x1="32" x2="118" y1="441.4219" y2="441.4219"/><!--MD5=[c16550a089c709c9219bd571c43da7cc]
@startuml 5-3-1
actor 学生
participant "画面・コントローラ" as controller
participant "授業履修者情報" as model
participant "出席情報" as model2

activate 学生

学生 -> controller : ID入力
activate controller
controller -> model : 履修授業問い合わせ
activate model
controller <- - model : 授業一覧
deactivate model
controller -> controller : 授業一覧を表示
activate controller
deactivate controller
学生 <- - controller
deactivate controller

学生 -> controller : 授業選択
activate controller
controller -> model2 : 出席情報問い合わせ
activate model2
controller <- - model2 : 出席一覧
deactivate model2
controller -> controller : 出席一覧を表示
activate controller
deactivate controller
学生 <- - controller
deactivate controller
@enduml

PlantUML version 1.2022.5(Sat Apr 30 19:55:52 JST 2022)
(GPL source distribution)
Java Runtime: Java(TM) SE Runtime Environment
JVM: Java HotSpot(TM) 64-Bit Server VM
Default Encoding: MS932
Language: ja
Country: JP
--></g></svg>