<?xml version="1.0" encoding="UTF-8" standalone="no"?><svg xmlns="http://www.w3.org/2000/svg" xmlns:xlink="http://www.w3.org/1999/xlink" contentStyleType="text/css" height="805px" preserveAspectRatio="none" style="width:591px;height:805px;background:#FFFFFF;" version="1.1" viewBox="0 0 591 805" width="591px" zoomAndPan="magnify"><defs/><g><rect fill="#FFFFFF" height="622.2188" style="stroke:#181818;stroke-width:1.0;" width="10" x="17" y="92.6094"/><rect fill="#FFFFFF" height="148.0547" style="stroke:#181818;stroke-width:1.0;" width="10" x="164" y="114.9609"/><rect fill="#FFFFFF" height="28" style="stroke:#181818;stroke-width:1.0;" width="10" x="169" y="214.0156"/><rect fill="#FFFFFF" height="87.3516" style="stroke:#181818;stroke-width:1.0;" width="10" x="164" y="293.3672"/><rect fill="#FFFFFF" height="28" style="stroke:#181818;stroke-width:1.0;" width="10" x="169" y="331.7188"/><rect fill="#FFFFFF" height="294.7578" style="stroke:#181818;stroke-width:1.0;" width="10" x="164" y="411.0703"/><rect fill="#FFFFFF" height="28" style="stroke:#181818;stroke-width:1.0;" width="10" x="169" y="656.8281"/><rect fill="#FFFFFF" height="30.3516" style="stroke:#181818;stroke-width:1.0;" width="10" x="331" y="145.3125"/><rect fill="#FFFFFF" height="177.0547" style="stroke:#181818;stroke-width:1.0;" width="10" x="432" y="441.4219"/><rect fill="#FFFFFF" height="28" style="stroke:#181818;stroke-width:1.0;" width="10" x="437" y="479.7734"/><rect fill="#FFFFFF" height="28" style="stroke:#181818;stroke-width:1.0;" width="10" x="437" y="553.125"/><line style="stroke:#181818;stroke-width:0.5;stroke-dasharray:5.0,5.0;" x1="22" x2="22" y1="82.6094" y2="723.8281"/><line style="stroke:#181818;stroke-width:0.5;stroke-dasharray:5.0,5.0;" x1="169" x2="169" y1="82.6094" y2="723.8281"/><line style="stroke:#181818;stroke-width:0.5;stroke-dasharray:5.0,5.0;" x1="336" x2="336" y1="82.6094" y2="723.8281"/><line style="stroke:#181818;stroke-width:0.5;stroke-dasharray:5.0,5.0;" x1="437" x2="437" y1="82.6094" y2="723.8281"/><text fill="#000000" font-family="sans-serif" font-size="14" lengthAdjust="spacing" textLength="28" x="5" y="79.5332">教員</text><ellipse cx="22" cy="13.5" fill="#E2E2F0" rx="8" ry="8" style="stroke:#181818;stroke-width:0.5;"/><path d="M22,21.5 L22,48.5 M9,29.5 L35,29.5 M22,48.5 L9,63.5 M22,48.5 L35,63.5 " fill="none" style="stroke:#181818;stroke-width:0.5;"/><text fill="#000000" font-family="sans-serif" font-size="14" lengthAdjust="spacing" textLength="28" x="5" y="737.3613">教員</text><ellipse cx="22" cy="748.9375" fill="#E2E2F0" rx="8" ry="8" style="stroke:#181818;stroke-width:0.5;"/><path d="M22,756.9375 L22,783.9375 M9,764.9375 L35,764.9375 M22,783.9375 L9,798.9375 M22,783.9375 L35,798.9375 " fill="none" style="stroke:#181818;stroke-width:0.5;"/><rect fill="#E2E2F0" height="31.6094" rx="2.5" ry="2.5" style="stroke:#181818;stroke-width:0.5;" width="140" x="99" y="50"/><text fill="#000000" font-family="sans-serif" font-size="14" lengthAdjust="spacing" textLength="126" x="106" y="71.5332">画面・コントローラ</text><rect fill="#E2E2F0" height="31.6094" rx="2.5" ry="2.5" style="stroke:#181818;stroke-width:0.5;" width="140" x="99" y="722.8281"/><text fill="#000000" font-family="sans-serif" font-size="14" lengthAdjust="spacing" textLength="126" x="106" y="744.3613">画面・コントローラ</text><rect fill="#E2E2F0" height="31.6094" rx="2.5" ry="2.5" style="stroke:#181818;stroke-width:0.5;" width="112" x="280" y="50"/><text fill="#000000" font-family="sans-serif" font-size="14" lengthAdjust="spacing" textLength="98" x="287" y="71.5332">授業担当者情報</text><rect fill="#E2E2F0" height="31.6094" rx="2.5" ry="2.5" style="stroke:#181818;stroke-width:0.5;" width="112" x="280" y="722.8281"/><text fill="#000000" font-family="sans-serif" font-size="14" lengthAdjust="spacing" textLength="98" x="287" y="744.3613">授業担当者情報</text><rect fill="#E2E2F0" height="31.6094" rx="2.5" ry="2.5" style="stroke:#181818;stroke-width:0.5;" width="70" x="402" y="50"/><text fill="#000000" font-family="sans-serif" font-size="14" lengthAdjust="spacing" textLength="56" x="409" y="71.5332">出席情報</text><rect fill="#E2E2F0" height="31.6094" rx="2.5" ry="2.5" style="stroke:#181818;stroke-width:0.5;" width="70" x="402" y="722.8281"/><text fill="#000000" font-family="sans-serif" font-size="14" lengthAdjust="spacing" textLength="56" x="409" y="744.3613">出席情報</text><rect fill="#FFFFFF" height="622.2188" style="stroke:#181818;stroke-width:1.0;" width="10" x="17" y="92.6094"/><rect fill="#FFFFFF" height="148.0547" style="stroke:#181818;stroke-width:1.0;" width="10" x="164" y="114.9609"/><rect fill="#FFFFFF" height="28" style="stroke:#181818;stroke-width:1.0;" width="10" x="169" y="214.0156"/><rect fill="#FFFFFF" height="87.3516" style="stroke:#181818;stroke-width:1.0;" width="10" x="164" y="293.3672"/><rect fill="#FFFFFF" height="28" style="stroke:#181818;stroke-width:1.0;" width="10" x="169" y="331.7188"/><rect fill="#FFFFFF" height="294.7578" style="stroke:#181818;stroke-width:1.0;" width="10" x="164" y="411.0703"/><rect fill="#FFFFFF" height="28" style="stroke:#181818;stroke-width:1.0;" width="10" x="169" y="656.8281"/><rect fill="#FFFFFF" height="30.3516" style="stroke:#181818;stroke-width:1.0;" width="10" x="331" y="145.3125"/><rect fill="#FFFFFF" height="177.0547" style="stroke:#181818;stroke-width:1.0;" width="10" x="432" y="441.4219"/><rect fill="#FFFFFF" height="28" style="stroke:#181818;stroke-width:1.0;" width="10" x="437" y="479.7734"/><rect fill="#FFFFFF" height="28" style="stroke:#181818;stroke-width:1.0;" width="10" x="437" y="553.125"/><polygon fill="#181818" points="152,110.9609,162,114.9609,152,118.9609,156,114.9609" style="stroke:#181818;stroke-width:1.0;"/><line style="stroke:#181818;stroke-width:1.0;" x1="27" x2="158" y1="114.9609" y2="114.9609"/><text fill="#000000" font-family="sans-serif" font-size="13" lengthAdjust="spacing" textLength="78" x="34" y="110.1045">授業情報入力</text><polygon fill="#181818" points="319,141.3125,329,145.3125,319,149.3125,323,145.3125" style="stroke:#181818;stroke-width:1.0;"/><line style="stroke:#181818;stroke-width:1.0;" x1="174" x2="325" y1="145.3125" y2="145.3125"/><text fill="#000000" font-family="sans-serif" font-size="13" lengthAdjust="spacing" textLength="117" x="181" y="140.4561">担当授業問い合わせ</text><polygon fill="#181818" points="185,171.6641,175,175.6641,185,179.6641,181,175.6641" style="stroke:#181818;stroke-width:1.0;"/><line style="stroke:#181818;stroke-width:1.0;stroke-dasharray:2.0,2.0;" x1="179" x2="335" y1="175.6641" y2="175.6641"/><text fill="#000000" font-family="sans-serif" font-size="13" lengthAdjust="spacing" textLength="52" x="191" y="170.8076">授業一覧</text><line style="stroke:#181818;stroke-width:1.0;" x1="179" x2="221" y1="206.0156" y2="206.0156"/><line style="stroke:#181818;stroke-width:1.0;" x1="221" x2="221" y1="206.0156" y2="219.0156"/><line style="stroke:#181818;stroke-width:1.0;" x1="180" x2="221" y1="219.0156" y2="219.0156"/><polygon fill="#181818" points="190,215.0156,180,219.0156,190,223.0156,186,219.0156" style="stroke:#181818;stroke-width:1.0;"/><text fill="#000000" font-family="sans-serif" font-size="13" lengthAdjust="spacing" textLength="91" x="186" y="201.1592">授業一覧を表示</text><polygon fill="#181818" points="38,259.0156,28,263.0156,38,267.0156,34,263.0156" style="stroke:#181818;stroke-width:1.0;"/><line style="stroke:#181818;stroke-width:1.0;stroke-dasharray:2.0,2.0;" x1="32" x2="168" y1="263.0156" y2="263.0156"/><polygon fill="#181818" points="152,289.3672,162,293.3672,152,297.3672,156,293.3672" style="stroke:#181818;stroke-width:1.0;"/><line style="stroke:#181818;stroke-width:1.0;" x1="27" x2="158" y1="293.3672" y2="293.3672"/><text fill="#000000" font-family="sans-serif" font-size="13" lengthAdjust="spacing" textLength="52" x="34" y="288.5107">授業選択</text><line style="stroke:#181818;stroke-width:1.0;" x1="179" x2="221" y1="323.7188" y2="323.7188"/><line style="stroke:#181818;stroke-width:1.0;" x1="221" x2="221" y1="323.7188" y2="336.7188"/><line style="stroke:#181818;stroke-width:1.0;" x1="180" x2="221" y1="336.7188" y2="336.7188"/><polygon fill="#181818" points="190,332.7188,180,336.7188,190,340.7188,186,336.7188" style="stroke:#181818;stroke-width:1.0;"/><text fill="#000000" font-family="sans-serif" font-size="13" lengthAdjust="spacing" textLength="143" x="186" y="318.8623">アップロード画面を表示</text><polygon fill="#181818" points="38,376.7188,28,380.7188,38,384.7188,34,380.7188" style="stroke:#181818;stroke-width:1.0;"/><line style="stroke:#181818;stroke-width:1.0;stroke-dasharray:2.0,2.0;" x1="32" x2="168" y1="380.7188" y2="380.7188"/><polygon fill="#181818" points="152,407.0703,162,411.0703,152,415.0703,156,411.0703" style="stroke:#181818;stroke-width:1.0;"/><line style="stroke:#181818;stroke-width:1.0;" x1="27" x2="158" y1="411.0703" y2="411.0703"/><text fill="#000000" font-family="sans-serif" font-size="13" lengthAdjust="spacing" textLength="118" x="34" y="406.2139">CSVファイルを指定</text><polygon fill="#181818" points="420,437.4219,430,441.4219,420,445.4219,424,441.4219" style="stroke:#181818;stroke-width:1.0;"/><line style="stroke:#181818;stroke-width:1.0;" x1="174" x2="426" y1="441.4219" y2="441.4219"/><text fill="#000000" font-family="sans-serif" font-size="13" lengthAdjust="spacing" textLength="118" x="181" y="436.5654">CSVファイルを送信</text><line style="stroke:#181818;stroke-width:1.0;" x1="447" x2="489" y1="471.7734" y2="471.7734"/><line style="stroke:#181818;stroke-width:1.0;" x1="489" x2="489" y1="471.7734" y2="484.7734"/><line style="stroke:#181818;stroke-width:1.0;" x1="448" x2="489" y1="484.7734" y2="484.7734"/><polygon fill="#181818" points="458,480.7734,448,484.7734,458,488.7734,454,484.7734" style="stroke:#181818;stroke-width:1.0;"/><text fill="#000000" font-family="sans-serif" font-size="13" lengthAdjust="spacing" textLength="130" x="454" y="466.917">フォーマットチェック</text><line style="stroke:#181818;stroke-width:1.0;" x1="447" x2="489" y1="545.125" y2="545.125"/><line style="stroke:#181818;stroke-width:1.0;" x1="489" x2="489" y1="545.125" y2="558.125"/><line style="stroke:#181818;stroke-width:1.0;" x1="448" x2="489" y1="558.125" y2="558.125"/><polygon fill="#181818" points="458,554.125,448,558.125,458,562.125,454,558.125" style="stroke:#181818;stroke-width:1.0;"/><text fill="#000000" font-family="sans-serif" font-size="13" lengthAdjust="spacing" textLength="65" x="454" y="540.2686">データ保存</text><polygon fill="#181818" points="185,614.4766,175,618.4766,185,622.4766,181,618.4766" style="stroke:#181818;stroke-width:1.0;"/><line style="stroke:#181818;stroke-width:1.0;stroke-dasharray:2.0,2.0;" x1="179" x2="436" y1="618.4766" y2="618.4766"/><text fill="#000000" font-family="sans-serif" font-size="13" lengthAdjust="spacing" textLength="52" x="191" y="613.6201">保存結果</text><line style="stroke:#181818;stroke-width:1.0;" x1="179" x2="221" y1="648.8281" y2="648.8281"/><line style="stroke:#181818;stroke-width:1.0;" x1="221" x2="221" y1="648.8281" y2="661.8281"/><line style="stroke:#181818;stroke-width:1.0;" x1="180" x2="221" y1="661.8281" y2="661.8281"/><polygon fill="#181818" points="190,657.8281,180,661.8281,190,665.8281,186,661.8281" style="stroke:#181818;stroke-width:1.0;"/><text fill="#000000" font-family="sans-serif" font-size="13" lengthAdjust="spacing" textLength="91" x="186" y="643.9717">保存結果を表示</text><polygon fill="#181818" points="38,701.8281,28,705.8281,38,709.8281,34,705.8281" style="stroke:#181818;stroke-width:1.0;"/><line style="stroke:#181818;stroke-width:1.0;stroke-dasharray:2.0,2.0;" x1="32" x2="168" y1="705.8281" y2="705.8281"/><!--MD5=[1008ba583a4afa4bc07e929f394a75a3]
@startuml 5-3-2
actor 教員
participant "画面・コントローラ" as controller
participant "授業担当者情報" as model
participant "出席情報" as model2

activate 教員

教員 -> controller : 授業情報入力
activate controller
controller -> model : 担当授業問い合わせ
activate model
controller <- - model : 授業一覧
deactivate model
controller -> controller : 授業一覧を表示
activate controller
deactivate controller
教員 <- - controller
deactivate controller

教員 -> controller : 授業選択
activate controller
controller -> controller : アップロード画面を表示
activate controller
deactivate controller
教員 <- - controller
deactivate controller

教員 -> controller : CSVファイルを指定
activate controller
controller -> model2 : CSVファイルを送信
activate model2
model2 -> model2 : フォーマットチェック
activate model2
deactivate model2
model2 -> model2 : データ保存
activate model2
deactivate model2
controller <- - model2 : 保存結果
deactivate model2
controller -> controller : 保存結果を表示
activate controller
deactivate controller
教員 <- - controller
deactivate controller


@enduml

PlantUML version 1.2022.5(Sat Apr 30 19:55:52 JST 2022)
(GPL source distribution)
Java Runtime: Java(TM) SE Runtime Environment
JVM: Java HotSpot(TM) 64-Bit Server VM
Default Encoding: MS932
Language: ja
Country: JP
--></g></svg>